<svg xmlns="http://www.w3.org/2000/svg">
    <!-- Task -->
    <symbol id="task" viewBox="0 0 24 24">
        <path d="M9 12h3.75M9 15h3.75M9 18h3.75m3 .75H18a2.25 2.25 0 002.25-2.25V6.108c0-1.135-.845-2.098-1.976-2.192a48.424 48.424 0 00-1.123-.08m-5.801 0c-.065.21-.1.433-.1.664 0 .414.336.75.75.75h4.5a.75.75 0 00.75-.75 2.25 2.25 0 00-.1-.664m-5.8 0A2.251 2.251 0 0113.5 2.25H15c1.012 0 1.867.668 2.15 1.586m-5.8 0c-.376.023-.75.05-1.124.08C9.095 4.01 8.25 4.973 8.25 6.108V8.25m0 0H4.875c-.621 0-1.125.504-1.125 1.125v11.25c0 .621.504 1.125 1.125 1.125h9.75c.621 0 1.125-.504 1.125-1.125V9.375c0-.621-.504-1.125-1.125-1.125H8.25zM6.75 12h.008v.008H6.75V12zm0 3h.008v.008H6.75V15zm0 3h.008v.008H6.75V18z" stroke-linecap="round" stroke-linejoin="round"></path>
    </symbol>
    <!-- Calendar -->
    <symbol id="calendar" viewBox="0 0 24 24">
        <path d="M6.75 3v2.25M17.25 3v2.25M3 18.75V7.5a2.25 2.25 0 012.25-2.25h13.5A2.25 2.25 0 0121 7.5v11.25m-18 0A2.25 2.25 0 005.25 21h13.5A2.25 2.25 0 0021 18.75m-18 0v-7.5A2.25 2.25 0 015.25 9h13.5A2.25 2.25 0 0121 11.25v7.5" stroke-linecap="round" stroke-linejoin="round"></path>
    </symbol>
    <!-- Documents -->
    <symbol id="documents" viewBox="0 0 24 24">
        <path d="M19.5 14.25v-2.625a3.375 3.375 0 00-3.375-3.375h-1.5A1.125 1.125 0 0113.5 7.125v-1.5a3.375 3.375 0 00-3.375-3.375H8.25m0 12.75h7.5m-7.5 3H12M10.5 2.25H5.625c-.621 0-1.125.504-1.125 1.125v17.25c0 .621.504 1.125 1.125 1.125h12.75c.621 0 1.125-.504 1.125-1.125V11.25a9 9 0 00-9-9z" stroke-linecap="round" stroke-linejoin="round"></path>
    </symbol>
    <!-- Help -->
    <symbol id="help" viewBox="0 0 24 24">
        <path clip-rule="evenodd" d="M19.449 8.448L16.388 11a4.52 4.52 0 010 2.002l3.061 2.55a8.275 8.275 0 000-7.103zM15.552 19.45L13 16.388a4.52 4.52 0 01-2.002 0l-2.55 3.061a8.275 8.275 0 007.103 0zM4.55 15.552L7.612 13a4.52 4.52 0 010-2.002L4.551 8.45a8.275 8.275 0 000 7.103zM8.448 4.55L11 7.612a4.52 4.52 0 012.002 0l2.55-3.061a8.275 8.275 0 00-7.103 0zm8.657-.86a9.776 9.776 0 011.79 1.415 9.776 9.776 0 011.414 1.788 9.764 9.764 0 010 10.211 9.777 9.777 0 01-1.415 1.79 9.777 9.777 0 01-1.788 1.414 9.764 9.764 0 01-10.212 0 9.776 9.776 0 01-1.788-1.415 9.776 9.776 0 01-1.415-1.788 9.764 9.764 0 010-10.212 9.774 9.774 0 011.415-1.788A9.774 9.774 0 016.894 3.69a9.764 9.764 0 0110.211 0zM14.121 9.88a2.985 2.985 0 00-1.11-.704 3.015 3.015 0 00-2.022 0 2.985 2.985 0 00-1.11.704c-.326.325-.56.705-.704 1.11a3.015 3.015 0 000 2.022c.144.405.378.785.704 1.11.325.326.705.56 1.11.704.652.233 1.37.233 2.022 0a2.985 2.985 0 001.11-.704c.326-.325.56-.705.704-1.11a3.016 3.016 0 000-2.022 2.985 2.985 0 00-.704-1.11z" fill-rule="evenodd"></path>
    </symbol>
    <!-- Settings -->
    <symbol id="settings" viewBox="0 0 24 24">
        <path d="M10.343 3.94c.09-.542.56-.94 1.11-.94h1.093c.55 0 1.02.398 1.11.94l.149.894c.07.424.384.764.78.93.398.164.855.142 1.205-.108l.737-.527a1.125 1.125 0 011.45.12l.773.774c.39.389.44 1.002.12 1.45l-.527.737c-.25.35-.272.806-.107 1.204.165.397.505.71.93.78l.893.15c.543.09.94.56.94 1.109v1.094c0 .55-.397 1.02-.94 1.11l-.893.149c-.425.07-.765.383-.93.78-.165.398-.143.854.107 1.204l.527.738c.32.447.269 1.06-.12 1.45l-.774.773a1.125 1.125 0 01-1.449.12l-.738-.527c-.35-.25-.806-.272-1.203-.107-.397.165-.71.505-.781.929l-.149.894c-.09.542-.56.94-1.11.94h-1.094c-.55 0-1.019-.398-1.11-.94l-.148-.894c-.071-.424-.384-.764-.781-.93-.398-.164-.854-.142-1.204.108l-.738.527c-.447.32-1.06.269-1.45-.12l-.773-.774a1.125 1.125 0 01-.12-1.45l.527-.737c.25-.35.273-.806.108-1.204-.165-.397-.505-.71-.93-.78l-.894-.15c-.542-.09-.94-.56-.94-1.109v-1.094c0-.55.398-1.02.94-1.11l.894-.149c.424-.07.765-.383.93-.78.165-.398.143-.854-.107-1.204l-.527-.738a1.125 1.125 0 01.12-1.45l.773-.773a1.125 1.125 0 011.45-.12l.737.527c.35.25.807.272 1.204.107.397-.165.71-.505.78-.929l.15-.894z" stroke-linecap="round" stroke-linejoin="round"></path>
        <path d="M15 12a3 3 0 11-6 0 3 3 0 016 0z" stroke-linecap="round" stroke-linejoin="round"></path>
    </symbol>
    <!-- Edit -->
    <symbol id="edit" viewBox="0 0 24 24">
        <path d="M16.862 4.487l1.687-1.688a1.875 1.875 0 112.652 2.652L6.832 19.82a4.5 4.5 0 01-1.897 1.13l-2.685.8.8-2.685a4.5 4.5 0 011.13-1.897L16.863 4.487zm0 0L19.5 7.125" stroke-linecap="round" stroke-linejoin="round"></path>
    </symbol>
    <!-- Delete -->
    <symbol id="delete" viewBox="0 0 24 24">
        <path d="M14.74 9l-.346 9m-4.788 0L9.26 9m9.968-3.21c.342.052.682.107 1.022.166m-1.022-.165L18.16 19.673a2.25 2.25 0 01-2.244 2.077H8.084a2.25 2.25 0 01-2.244-2.077L4.772 5.79m14.456 0a48.108 48.108 0 00-3.478-.397m-12 .562c.34-.059.68-.114 1.022-.165m0 0a48.11 48.11 0 013.478-.397m7.5 0v-.916c0-1.18-.91-2.164-2.09-2.201a51.964 51.964 0 00-3.32 0c-1.18.037-2.09 1.022-2.09 2.201v.916m7.5 0a48.667 48.667 0 00-7.5 0" stroke-linecap="round" stroke-linejoin="round"></path>
    </symbol>
    <!-- Move to -->
    <symbol id="move" viewBox="0 0 24 24">
        <path d="M4.5 12h15m0 0l-6.75-6.75M19.5 12l-6.75 6.75" stroke-linecap="round" stroke-linejoin="round"></path>
    </symbol>
    <!-- Chevron right -->
    <symbol id="right" viewBox="0 0 24 24">
        <path d="M8.25 4.5l7.5 7.5-7.5 7.5" stroke-linecap="round" stroke-linejoin="round"></path>
    </symbol>
    <symbol id="moveDown" viewBox="0 0 24 24">
        <path d="M12 4.5v15m0 0l6.75-6.75M12 19.5l-6.75-6.75" stroke-linecap="round" stroke-linejoin="round"></path>
    </symbol>
</svg>